<svg xmlns="http://www.w3.org/2000/svg" version="1.1" xmlns:xlink="http://www.w3.org/1999/xlink" xmlns:svgjs="http://svgjs.dev/svgjs" width="1500" height="1500" viewBox="0 0 1500 1500"><rect width="1500" height="1500" fill="#ffffff"></rect><g transform="matrix(0.6666666666666666,0,0,0.6666666666666666,247.90758293838854,160.43763440860226)"><svg viewBox="0 0 211 248" data-background-color="#0093fb" preserveAspectRatio="xMidYMid meet" height="1763" width="1500" xmlns="http://www.w3.org/2000/svg" xmlns:xlink="http://www.w3.org/1999/xlink"><g id="tight-bounds" transform="matrix(1,0,0,1,0.4415000000000191,0.4000000000000057)"><svg viewBox="0 0 210.11661800652791 247.2" height="247.2" width="210.11661800652791"><g><svg></svg></g><g><svg viewBox="0 0 210.11661800652791 247.2" height="247.2" width="210.11661800652791"><g transform="matrix(1,0,0,1,0,47.215199999999996)"><svg viewBox="0 0 210.11661800652791 152.7696" height="152.7696" width="210.11661800652791"><g><svg viewBox="0 0 244.43135999999998 177.71883751477412" height="152.7696" width="210.11661800652791"><g transform="matrix(1,0,0,1,0,100.9324685339991)"><svg viewBox="0 0 244.43135999999998 76.78636898077502" height="76.78636898077502" width="244.43135999999998"><g id="textblocktransform"><svg viewBox="0 0 244.43135999999998 76.78636898077502" height="76.78636898077502" width="244.43135999999998" id="textblock"><g><svg viewBox="0 0 244.43135999999998 43.7261080846017" height="43.7261080846017" width="244.43135999999998"><g transform="matrix(1,0,0,1,0,0)"><svg width="244.43135999999998" viewBox="2 -35.35 252.93 45.25" height="43.7261080846017" data-palette-color="#ffffff"><path d="M28.15-9.05L28.15-1.5Q25.1 0.4 19.35 0.4L19.35 0.4Q11.95 0.4 6.98-4.38 2-9.15 2-16.75L2-16.75Q2-24.45 6.83-29.3 11.65-34.15 19.4-34.15L19.4-34.15Q25.1-34.15 28.15-32.25L28.15-32.25 28.15-24.85Q24.4-27.15 19.8-27.15L19.8-27.15Q15.75-27.15 13-24.33 10.25-21.5 10.25-16.75L10.25-16.75Q10.25-12.1 13-9.38 15.75-6.65 20.1-6.65L20.1-6.65Q24.8-6.65 28.15-9.05L28.15-9.05ZM40.9-12.65L40.9 0 33.6 0 33.65-25.35 40.9-25.35 40.9-20.65Q41.6-22.85 43.22-24.18 44.85-25.5 47-25.5L47-25.5Q48.2-25.5 48.9-25.3L48.9-25.3 48.9-18.4Q47.7-18.95 46.15-18.95L46.15-18.95Q43.8-18.95 42.35-17.23 40.9-15.5 40.9-12.65L40.9-12.65ZM75.5-25.35L66.34-0.75Q62.4 9.9 54.3 9.9L54.3 9.9Q52.75 9.9 51.5 9.65L51.5 9.65 51.5 3.85Q52.3 4.05 53.2 4.05L53.2 4.05Q57.35 4.05 59.2-0.4L59.2-0.4 49.4-25.35 57.35-25.35 60.1-17.45Q61.15-14.4 61.82-12.2 62.5-10 62.65-9.3L62.65-9.3 62.8-8.6Q63.35-10.6 65.5-17.45L65.5-17.45 68-25.35 75.5-25.35ZM86.04-3.75L86.04 9.35 78.74 9.35 78.74-25.35 86.04-25.35 86.04-21.45Q88.69-25.65 93.69-25.65L93.69-25.65Q98.59-25.65 101.57-22.18 104.54-18.7 104.54-12.75L104.54-12.75Q104.54-7.1 101.67-3.4 98.79 0.3 93.69 0.3L93.69 0.3Q88.54 0.3 86.04-3.75L86.04-3.75ZM86.04-12.95L86.04-12.95Q86.04-9.7 87.64-7.75 89.24-5.8 91.74-5.8L91.74-5.8Q94.14-5.8 95.64-7.63 97.14-9.45 97.14-12.6L97.14-12.6Q97.14-16.05 95.62-17.82 94.09-19.6 91.74-19.6L91.74-19.6Q89.44-19.6 87.74-17.85 86.04-16.1 86.04-12.95ZM124.09-6.6L124.09-0.55Q122.24 0.25 119.09 0.25L119.09 0.25Q110.44 0.25 110.44-8.4L110.44-8.4 110.44-20 106.79-20 106.79-25.35 110.44-25.35 110.44-31.35 117.74-31.35 117.74-25.35 123.64-25.35 123.64-20 117.74-20 117.74-8.35Q117.74-7 118.52-6.3 119.29-5.6 120.54-5.6L120.54-5.6Q122.54-5.6 124.09-6.6L124.09-6.6ZM153.74-9.05L153.74-1.5Q150.69 0.4 144.94 0.4L144.94 0.4Q137.54 0.4 132.56-4.38 127.59-9.15 127.59-16.75L127.59-16.75Q127.59-24.45 132.41-29.3 137.24-34.15 144.99-34.15L144.99-34.15Q150.69-34.15 153.74-32.25L153.74-32.25 153.74-24.85Q149.99-27.15 145.39-27.15L145.39-27.15Q141.34-27.15 138.59-24.33 135.84-21.5 135.84-16.75L135.84-16.75Q135.84-12.1 138.59-9.38 141.34-6.65 145.69-6.65L145.69-6.65Q150.39-6.65 153.74-9.05L153.74-9.05ZM166.79-35.35L166.79 0 159.49 0 159.49-35.35 166.79-35.35ZM196.63-12.8L196.63-12.8Q196.63-7.05 193.36-3.33 190.08 0.4 184.23 0.4L184.23 0.4Q178.28 0.4 175.03-3.18 171.78-6.75 171.78-12.35L171.78-12.35Q171.78-18.2 175.18-21.98 178.58-25.75 184.23-25.75L184.23-25.75Q190.13-25.75 193.38-22.1 196.63-18.45 196.63-12.8ZM180.58-17.95Q179.38-15.9 179.38-12.65 179.38-9.4 180.61-7.33 181.83-5.25 184.28-5.25L184.28-5.25Q186.68-5.25 187.86-7.28 189.03-9.3 189.03-12.55L189.03-12.55Q189.03-20 184.18-20L184.18-20Q181.78-20 180.58-17.95ZM224.38-25.35L224.38 0 217.08 0 217.08-4.05Q215.08 0.2 209.38 0.2L209.38 0.2Q205.48 0.2 203.31-1.98 201.13-4.15 201.13-8.4L201.13-8.4 201.13-25.35 208.43-25.35 208.43-10.05Q208.43-5.6 212.33-5.6L212.33-5.6Q217.08-5.6 217.08-11.95L217.08-11.95 217.08-25.35 224.38-25.35ZM236.53-12.6L236.53-12.6Q236.53-9.55 238.13-7.68 239.73-5.8 242.03-5.8L242.03-5.8Q244.53-5.8 246.08-7.75 247.63-9.7 247.63-12.95L247.63-12.95Q247.63-16.1 245.95-17.85 244.28-19.6 241.98-19.6 239.68-19.6 238.1-17.75 236.53-15.9 236.53-12.6ZM254.93-35.35L254.93 0 247.63 0 247.63-3.95Q245.08 0.3 240.03 0.3L240.03 0.3Q235.08 0.3 232.1-3.55 229.13-7.4 229.13-12.75L229.13-12.75Q229.13-18.75 232.23-22.2 235.33-25.65 240.08-25.65L240.08-25.65Q245.03-25.65 247.63-21.45L247.63-21.45 247.63-35.35 254.93-35.35Z" opacity="1" transform="matrix(1,0,0,1,0,0)" fill="#000000" class="wordmark-text-0" data-fill-palette-color="primary" id="text-0"></path></svg></g></svg></g><g transform="matrix(1,0,0,1,97.30204669835935,54.04879277678213)"><svg viewBox="0 0 49.82726660328129 22.737576203992884" height="22.737576203992884" width="49.82726660328129"><g transform="matrix(1,0,0,1,0,0)"><svg width="49.82726660328129" viewBox="3 -37.65 84.14 38.4" height="22.737576203992884" data-palette-color="#ffffff"><path d="M3-34.55L9.35-34.55 9.35-5.25 20.5-5.25 19.8 0 3 0 3-34.55ZM40.6-6.4Q40.6-5.1 40.95-4.48 41.3-3.85 42.1-3.45L42.1-3.45 40.85 0.65Q38.8 0.4 37.57-0.45 36.35-1.3 35.75-3.05L35.75-3.05Q33.45 0.75 29.3 0.75L29.3 0.75Q26 0.75 24.05-1.48 22.1-3.7 22.1-7.4L22.1-7.4Q22.1-11.7 24.77-13.95 27.45-16.2 32.55-16.2L32.55-16.2 34.6-16.2 34.6-18.05Q34.6-20.55 33.72-21.58 32.85-22.6 30.9-22.6L30.9-22.6Q28.55-22.6 25.05-21.3L25.05-21.3 23.65-25.3Q25.65-26.2 27.8-26.68 29.95-27.15 31.9-27.15L31.9-27.15Q40.6-27.15 40.6-18.35L40.6-18.35 40.6-6.4ZM30.95-3.7Q33.35-3.7 34.6-7L34.6-7 34.6-12.55 33.15-12.55Q30.6-12.55 29.42-11.4 28.25-10.25 28.25-7.85L28.25-7.85Q28.25-5.8 28.95-4.75 29.65-3.7 30.95-3.7L30.95-3.7ZM58.55-27.15Q62.4-27.15 64.45-23.65 66.5-20.15 66.5-13.25L66.5-13.25Q66.5-6.75 64.2-3 61.9 0.75 57.9 0.75L57.9 0.75Q56.15 0.75 54.7-0.13 53.25-1 52.2-2.55L52.2-2.55 51.84 0 46.4 0 46.4-37 52.55-37.65 52.55-23.6Q53.59-25.3 55.12-26.23 56.65-27.15 58.55-27.15L58.55-27.15ZM56.25-3.9Q58.09-3.9 59.12-6 60.15-8.1 60.15-13.25L60.15-13.25Q60.15-18.6 59.22-20.58 58.3-22.55 56.59-22.55L56.59-22.55Q55.45-22.55 54.4-21.6 53.34-20.65 52.55-19.1L52.55-19.1 52.55-6.7Q53.2-5.45 54.17-4.67 55.15-3.9 56.25-3.9L56.25-3.9ZM78.44-27.15Q83.14-27.15 86.39-24.05L86.39-24.05 84.04-20.7Q82.64-21.7 81.39-22.2 80.14-22.7 78.84-22.7L78.84-22.7Q77.39-22.7 76.57-21.93 75.74-21.15 75.74-19.8L75.74-19.8Q75.74-18.45 76.67-17.63 77.59-16.8 80.39-15.7L80.39-15.7Q83.84-14.35 85.49-12.5 87.14-10.65 87.14-7.55L87.14-7.55Q87.14-3.7 84.44-1.48 81.74 0.75 77.59 0.75L77.59 0.75Q74.89 0.75 72.62-0.23 70.34-1.2 68.64-2.95L68.64-2.95 71.64-6.25Q74.44-3.8 77.34-3.8L77.34-3.8Q78.99-3.8 79.94-4.67 80.89-5.55 80.89-7.1L80.89-7.1Q80.89-8.25 80.49-8.97 80.09-9.7 79.09-10.33 78.09-10.95 76.09-11.7L76.09-11.7Q72.64-13.05 71.17-14.85 69.69-16.65 69.69-19.45L69.69-19.45Q69.69-22.8 72.07-24.98 74.44-27.15 78.44-27.15L78.44-27.15Z" opacity="1" transform="matrix(1,0,0,1,0,0)" fill="#000000" class="slogan-text-1" data-fill-palette-color="secondary" id="text-1"></path></svg></g></svg></g></svg></g></svg></g><g transform="matrix(1,0,0,1,50.462854272,0)"><svg viewBox="0 0 143.50565145599998 90.60978384181867" height="90.60978384181867" width="143.50565145599998"><g><svg xmlns="http://www.w3.org/2000/svg" xmlns:xlink="http://www.w3.org/1999/xlink" version="1.1" x="0" y="0" viewBox="0 18.211996772739017 99.439 62.78600322726099" enable-background="new 0 0 100 100" xml:space="preserve" height="90.60978384181867" width="143.50565145599998" class="icon-icon-0" data-fill-palette-color="accent" id="icon-0"><g fill="#002f81" data-fill-palette-color="accent"><path d="M36.478 60.17A12.4 12.4 0 0 1 43.321 58.123C43.446 58.123 43.562 58.125 43.67 58.127 43.87 58.135 44.069 58.145 44.267 58.158L44.279 58.066A22.42 22.42 0 0 1 62.25 38.604 22.5 22.5 0 0 1 66.559 38.188C67.542 38.188 68.518 38.253 69.482 38.381 67.166 29.409 60.341 22.252 51.567 19.469A26 26 0 0 0 48.594 18.71 27 27 0 0 0 43.419 18.212C35.307 18.212 28.037 21.802 23.101 27.478 28.47 29.273 30.685 33.803 30.685 33.803 26.627 30.37 20.945 30.31 20.945 30.31H20.87C9.344 30.311 0 39.654 0 51.18S9.344 72.051 20.871 72.051H30.95A12.43 12.43 0 0 1 36.478 60.17" fill="#000000" data-fill-palette-color="accent"></path><path d="M87.47 49.861A15.4 15.4 0 0 0 84.618 49.424C84.293 49.404 83.964 49.393 83.633 49.393H83.576S79.274 49.438 76.201 52.038C76.201 52.038 77.878 48.606 81.944 47.249A20.6 20.6 0 0 0 78.71 44.253 21 21 0 0 0 76.156 42.631 20.2 20.2 0 0 0 69.94 40.51 20.6 20.6 0 0 0 62.64 40.608C61.872 40.758 61.12 40.949 60.388 41.181 52.857 43.571 47.222 50.217 46.306 58.295L46.527 58.42C47.019 58.703 47.474 59.027 47.895 59.383A12 12 0 0 1 49.623 61.201C50.09 61.805 50.48 62.41 50.796 62.959 51.511 64.201 51.848 65.158 51.848 65.158A8.2 8.2 0 0 0 50.386 63.117 9.8 9.8 0 0 0 48.462 61.599C47.214 60.841 46.174 60.56 46.174 60.56A10.5 10.5 0 0 0 42.444 60.2C40.664 60.348 39.012 60.944 37.6 61.874A10.41 10.41 0 0 0 33.206 73.071C33.291 73.419 33.392 73.76 33.512 74.092 34.954 78.117 38.802 80.998 43.322 80.998H83.634C92.363 80.998 99.439 73.922 99.439 65.193 99.438 57.791 94.345 51.576 87.47 49.861" fill="#000000" data-fill-palette-color="accent"></path></g></svg></g></svg></g><g></g></svg></g></svg></g><path d="M0 41.215L0 1 210.117 1 210.117 41.215 206.727 41.215 206.727 4.39 3.39 4.39 3.39 41.215 0 41.215M0 205.985L0 246.2 210.117 246.2 210.117 205.985 206.727 205.985 206.727 242.81 3.39 242.81 3.39 205.985 0 205.985" fill="#000000" stroke="transparent" data-fill-palette-color="tertiary"></path></svg></g><defs></defs></svg><rect width="210.11661800652791" height="247.2" fill="none" stroke="none" visibility="hidden"></rect></g></svg></g></svg>